<?xml version="1.0" encoding="utf-8"?>
<!-- Generator: Adobe Illustrator 23.0.5, SVG Export Plug-In . SVG Version: 6.00 Build 0)  -->
<svg version="1.1" id="Layer_1" xmlns="http://www.w3.org/2000/svg" xmlns:xlink="http://www.w3.org/1999/xlink" x="0px" y="0px"
	 viewBox="0 0 85 85" style="enable-background:new 0 0 85 85;" xml:space="preserve">
<style type="text/css">
	.st0{fill:#0F0094;}
	.st1{fill:none;stroke:#587EFF;stroke-opacity:0.12;}
	.st2{fill:#FFFFFF;}
</style>
<g>
	<g>
		<path class="st0" d="M42.5,6L42.5,6c19.9,0,36,16.1,36,36v1c0,19.9-16.1,36-36,36l0,0c-19.9,0-36-16.1-36-36v-1
			C6.5,22.1,22.6,6,42.5,6z"/>
		<path class="st1" d="M42.5,6.5L42.5,6.5C62.1,6.5,78,22.4,78,42v1c0,19.6-15.9,35.5-35.5,35.5l0,0C22.9,78.5,7,62.6,7,43v-1
			C7,22.4,22.9,6.5,42.5,6.5z"/>
	</g>
	<path class="st2" d="M21.7,43.6l-0.2-0.2c0.2-0.3,0.3-0.6,0.3-1.1c0.1-1.5,1.8-3.5,3-4.2c0.6-0.4,1.4-0.5,2-0.9
		c0.8-0.6,1.3-1.6,2-2.3c0.4-0.4,1-0.7,1.4-1.1c0.2-0.2,0.4-0.6,0.6-0.9c0.2-0.4,0.4-0.7,0.8-0.8c0.8-0.2,1.1,0.4,1.3,1
		c0.2,0.5,0.4,1,0.7,1.3c1.3,1,1.9-0.1,2.4-1.2h0.2c1.9,0,3.9,0,5.4,1c0.6,0.4,1.2,1,1.7,1.6c0.6,0.7,1.3,1.4,2.1,2
		c2.2,1.4,4.8,1,7.2,0.6c1.2-0.2,2.4-0.4,3.6-0.3c2.9,0.1,5.7,1.7,7.1,4.1c0.1,0.1,0.1,0.2,0.2,0.3c0,0.2-0.2,0.5-0.4,0.7
		c-0.8,1.2-1.5,2.6-1.8,4.1c-0.1,0.2-0.1,0.4-0.1,0.6c-0.1,0.6-0.2,1.1-0.5,1.6c-0.4,0.8-1.2,1.5-2.6,2C54.8,52.9,51,53,47.5,53
		c-4.8,0.1-9.6,0.1-14.2-1.3c-4.3-1.3-7.1-3.9-10.3-6.9C22.6,44.4,22.1,44,21.7,43.6z"/>
</g>
</svg>
