<svg width="41" height="26" viewBox="0 0 41 26" fill="none" xmlns="http://www.w3.org/2000/svg">
<path fill-rule="evenodd" clip-rule="evenodd" d="M18.4844 0H14.4903C13.5243 0 13.5243 1.46761 14.4903 1.46761H18.4844C19.4504 1.46761 19.4504 0 18.4844 0ZM12.2424 11.7966H0.724515C-0.241505 11.7966 -0.241505 13.2642 0.724515 13.2642H12.2424C13.2085 13.2642 13.2085 11.7966 12.2424 11.7966ZM14.1559 14.7318H10.459C9.493 14.7318 9.493 16.1994 10.459 16.1994H14.1559C15.1219 16.1994 15.1219 14.7318 14.1559 14.7318ZM18.633 23.5746H14.9362C13.9701 23.5746 13.9701 25.0422 14.9362 25.0422H18.633C19.6176 25.0422 19.6176 23.5746 18.633 23.5746ZM35.5012 9.9017V12.1124L33.7364 13.1342V10.9235L30.2624 12.9484V23.0544L39.0123 18.0014V7.89536L35.5012 9.9017ZM34.7767 8.63845L38.2692 6.61352C35.3526 4.92298 32.436 3.25103 29.5193 1.56049L26.0268 3.58542L34.7767 8.63845ZM20.8623 6.66925L29.5193 11.6665L33.0119 9.64162L24.262 4.58859L20.8623 6.57637V6.66925ZM29.5193 0H21.1967C20.2307 0 20.2307 1.46761 21.1967 1.46761H26.7885L24.2434 2.93521H16.5895C15.6235 2.93521 15.6235 4.40282 16.5895 4.40282H21.6983L19.1346 5.88901H4.23562C3.2696 5.88901 3.2696 7.35661 4.23562 7.35661H18.5959V8.82422H8.86138C7.89536 8.82422 7.89536 10.2918 8.86138 10.2918H21.1038C22.0698 10.2918 22.0698 11.7594 21.1038 11.7594H15.3077C14.3417 11.7594 14.3417 13.227 15.3077 13.227H17.2583C18.2243 13.227 18.2243 14.6946 17.2769 14.6946H16.8496C15.8836 14.6946 15.8836 16.1623 16.8496 16.1623C17.8528 16.1623 18.5959 16.1623 19.5991 16.1623C20.5651 16.1623 20.5651 17.6299 19.5991 17.6299C15.2891 17.6299 11.2393 17.6299 6.94791 17.6299C5.98189 17.6299 5.98189 19.0975 6.94791 19.0975H19.116L21.6611 20.5651H16.2923C15.3263 20.5651 15.3263 22.0327 16.2923 22.0327H25.6181C26.5841 22.0327 26.5841 23.5003 25.6181 23.5003H20.918C19.952 23.5003 19.952 24.9679 20.918 24.9679C23.8161 24.9679 26.7142 24.9679 29.6122 24.9679C29.928 24.9307 38.9938 19.6176 40.1084 18.9674C40.3499 18.8374 40.4799 18.5773 40.4799 18.3358V6.53921C40.4799 6.24197 40.3128 5.98189 40.0527 5.87043C36.6716 3.91981 33.2905 1.96919 29.9095 0C29.7794 0.0185773 29.6494 0 29.5193 0Z" fill="#303E9F"/>
<path fill-rule="evenodd" clip-rule="evenodd" d="M25.9992 16.688C26.0304 15.2751 25.0947 13.6696 23.9407 13.1558C22.7866 12.642 21.9133 13.4448 22.0069 14.8898C22.0693 15.7568 22.5059 16.7522 22.9114 17.4908C23.1297 17.8761 23.3481 18.1972 23.5352 18.4541C23.6288 18.5826 23.7223 18.6789 23.8159 18.7752C23.8783 18.8394 23.9719 18.9358 24.0654 18.9679C24.159 19 24.2214 19 24.315 19C24.4085 19 24.4709 18.9679 24.5645 18.9358C24.7516 18.8394 24.97 18.711 25.1571 18.5183C25.5938 18.133 25.9992 17.5229 25.9992 16.688ZM24.0342 16.5275C24.4085 16.688 24.7204 16.4632 24.6892 15.9816C24.6892 15.4999 24.3773 14.954 23.9719 14.7935C23.5976 14.6329 23.2857 14.8898 23.3169 15.3715C23.3481 15.8531 23.66 16.3669 24.0342 16.5275Z" fill="#00D496"/>
</svg>
