<?xml version="1.0" encoding="utf-8"?>
<!-- Generator: Adobe Illustrator 23.0.5, SVG Export Plug-In . SVG Version: 6.00 Build 0)  -->
<svg version="1.1" id="Layer_1" xmlns="http://www.w3.org/2000/svg" xmlns:xlink="http://www.w3.org/1999/xlink" x="0px" y="0px"
	 viewBox="0 0 85 85" style="enable-background:new 0 0 85 85;" xml:space="preserve">
<style type="text/css">
	.st0{fill:#0F0094;}
	.st1{fill:none;stroke:#587EFF;stroke-opacity:0.12;}
	.st2{fill:#FFFFFF;}
</style>
<g>
	<g>
		<path class="st0" d="M42.5,6L42.5,6c19.9,0,36,16.1,36,36v1c0,19.9-16.1,36-36,36l0,0c-19.9,0-36-16.1-36-36v-1
			C6.5,22.1,22.6,6,42.5,6z"/>
		<path class="st1" d="M42.5,6.5L42.5,6.5C62.1,6.5,78,22.4,78,42v1c0,19.6-15.9,35.5-35.5,35.5l0,0C22.9,78.5,7,62.6,7,43v-1
			C7,22.4,22.9,6.5,42.5,6.5z"/>
	</g>
	<path class="st2" d="M53.6,22.1c0.9-0.4,1.9-0.8,2.8-1.1c0.3,1.7,0.1,3.6-0.1,5.2c-0.1,1-0.3,2-0.7,3c-0.3,0.9-1,1.6-1,2.6
		c0,0.4,0.1,0.7,0,1.1c-0.1,0.4-0.5,0.8-0.6,1.2c-0.2,1,0.4,2.2,0.5,3.3c0.1,2.2,0.1,4.5,0.2,6.7c0,0.7,0,1.3,0,2
		c-2.8,0.6-5.6,1.4-8.3,2.2c-1.1,0.3-2.2,0.8-2.6,1.8c-0.2,0.6-0.2,1.1-0.1,1.7c0,0.2,0,0.4,0.1,0.6c0,0.4,0,0.8-0.1,1.3
		c-0.1,0.8-0.2,1.6,0.1,2.3c0.2,0.6,0.6,1.1,1,1.6c0.3,0.3,0.5,0.6,0.7,0.9c0.5,0.9,0.5,2.1,0.1,3c-0.3,0.5-0.6,0.9-1.1,1.4
		c0,0,0,0-0.1,0.1h0c-0.7-0.1-1.4,0-2,0c-0.2,0-0.4,0-0.6,0l-0.3-1.3c-0.1-0.3-0.2-0.7-0.5-1.1c-0.3-0.3-0.7-0.5-1.1-0.6
		c-1.3-0.5-2.6-1.1-3.1-2.2c-0.1-0.2-0.2-0.4-0.2-0.6c-0.1-0.4-0.3-0.8-0.6-1.1c-0.3-0.3-0.6-0.6-1-0.8c-0.3-0.2-0.5-0.3-0.7-0.5
		c-0.1-0.1-0.2-0.3-0.3-0.4c-0.1-0.1-0.2-0.2-0.2-0.3c-0.7-0.8-1.8-1.2-2.9-1.5c0-0.6-0.1-1.2-0.2-1.7c-0.1-0.6-0.3-1.1-0.4-1.7
		c-0.3-1-0.6-1.9-0.5-2.9c0-0.5,0.2-0.9,0.3-1.4c0.1-0.4,0.2-0.7,0.3-1.1c0.1-0.3,0.1-0.6,0.1-0.9c0-0.2,0-0.4,0.1-0.6
		c0.1-0.6,0.2-1.1,0.3-1.7c0.1-0.6,0.3-1.1,0.4-1.7c0.2-1.5,0-2.7-0.7-3.6l-0.1-0.1c-0.1-0.2-0.3-0.4-0.3-0.5c0-0.3,0.5-0.4,1-0.5
		l0.4,0c1.1-0.1,2.2-0.2,3.4-0.4c0.1,0.1,0.3,0.2,0.4,0.3c0.3,0.2,0.7,0.2,1,0.3c0.8,0.1,1.6,0.3,2.5,0.3c0.2,0,0.4,0,0.6,0
		c1.2-0.1,2.3-0.5,3-1.3c0.1-0.1,0.2-0.2,0.3-0.3c0.1-0.1,0.2-0.3,0.3-0.4c0.4-0.4,1-0.6,1.6-0.9c0.7-0.3,1.4-0.5,1.9-1.1
		c0.6-0.6,0.9-1.5,1.1-2.3c0.1-0.4,0.2-0.7,0.4-1c0.5-1.1,1.3-2,2.2-2.9c0.6-0.6,1.2-1.3,1.9-1.7C52.6,22.6,53.1,22.3,53.6,22.1z"/>
</g>
</svg>
