<?xml version="1.0" encoding="utf-8"?>
<!-- Generator: Adobe Illustrator 23.0.5, SVG Export Plug-In . SVG Version: 6.00 Build 0)  -->
<svg version="1.1" id="Layer_1" xmlns="http://www.w3.org/2000/svg" xmlns:xlink="http://www.w3.org/1999/xlink" x="0px" y="0px"
	 viewBox="0 0 85 85" style="enable-background:new 0 0 85 85;" xml:space="preserve">
<style type="text/css">
	.st0{fill:#21A9E1;}
	.st1{fill:none;stroke:#587EFF;stroke-opacity:0.12;}
	.st2{fill:#FFFFFF;}
</style>
<g>
	<g>
		<path class="st0" d="M42.5,6L42.5,6c19.9,0,36,16.1,36,36v1c0,19.9-16.1,36-36,36l0,0c-19.9,0-36-16.1-36-36v-1
			C6.5,22.1,22.6,6,42.5,6z"/>
		<path class="st1" d="M42.5,6.5L42.5,6.5C62.1,6.5,78,22.4,78,42v1c0,19.6-15.9,35.5-35.5,35.5l0,0C22.9,78.5,7,62.6,7,43v-1
			C7,22.4,22.9,6.5,42.5,6.5z"/>
	</g>
	<path class="st2" d="M56.3,35.7c0.1,0.1,0.1,0.3,0.1,0.4c0,0.1-0.1,0.2-0.1,0.3c0,0.1-0.1,0.2-0.1,0.3c0,0.1,0,0.2,0,0.3
		c0,0,0,0,0,0c0,0.1,0,0.2-0.1,0.3c0,0,0,0,0,0.1c0,0.1-0.1,0.1-0.2,0.1c0,0-0.1,0-0.2,0.1c-0.3,0.2-0.5,0.6-0.5,0.9
		c0,0.3,0,0.6,0.2,0.8c0.1,0.1,0.1,0.1,0.2,0.2c0,0,0.1,0.1,0.1,0.1c0.3,0.3,0.3,0.8,0.1,1.5c-0.1,0.2-0.2,0.5-0.3,0.8
		c0,0.1-0.1,0.1-0.1,0.2c0,0.1-0.1,0.1-0.1,0.2c-0.3,0.5-0.3,1-0.3,1.5v0.1c0,0.1,0,0.2,0,0.3c0,0,0.1,0.1,0.1,0.1c0,0,0,0,0,0.1
		c0,0.1,0,0.2,0.1,0.3c0,0,0,0.1,0,0.1c0,0.3,0.3,0.6,0.5,0.9c0.2,0.2,0.4,0.5,0.4,0.7c0,0.2,0,0.5,0,0.7l-0.1,0.6
		c-0.8-0.2-1.6-0.2-2.2-0.1c-0.7,0.1-1,0.4-1.4,0.8c-0.2,0.1-0.3,0.3-0.5,0.4c-0.2,0.1-0.3,0.2-0.5,0.3c-0.3,0.2-0.6,0.3-0.8,0.6
		c-0.2,0.2-0.3,0.4-0.4,0.6c-0.1,0.1-0.2,0.3-0.3,0.4c-0.2,0.3-0.5,0.5-0.8,0.8c-0.2,0.2-0.5,0.4-0.7,0.6c-0.8,0.9-0.4,2.7,0.1,3.7
		c0.4,0.7,0.3,1.5,0.2,2.3c0,0.3-0.1,0.7-0.1,1c-0.1,0-0.3,0-0.4,0c-0.4,0-0.7-0.2-1.1-0.4c-0.4-0.2-0.8-0.4-1.2-0.4
		c-0.3,0-0.6,0-0.9,0.1c0,0,0,0,0,0c0-0.2,0-0.4,0-0.6c0-0.1,0-0.3-0.1-0.4c0-0.2-0.1-0.3-0.1-0.5c0-0.1,0-0.2,0-0.3
		c0-0.1,0-0.2,0-0.3c0-0.5-0.2-0.9-0.5-1.3c-0.2-0.3-0.3-0.5-0.4-0.8c-0.1-0.4-0.1-0.8,0-1.2l0-0.2c0-0.3,0-0.5,0-0.8
		c0-0.2,0-0.4,0-0.6c0-0.3-0.2-0.5-0.4-0.7c-0.1-0.1-0.1-0.1-0.2-0.2c-0.2-0.2-0.3-0.4-0.4-0.7l0,0c-0.1-0.3-0.3-0.6-0.5-0.9
		c-0.1-0.1-0.2-0.3-0.2-0.4c-0.1-0.2,0-0.5,0.1-0.7c0.1-0.2,0.3-0.4,0.6-0.6l0.1-0.1c0.1-0.1,0.3-0.2,0.3-0.3
		c0.1-0.1,0.1-0.1,0.2-0.2c0.1-0.2,0.3-0.6,0.3-0.9c0-0.1-0.1-0.2-0.1-0.3c-0.1-0.2-0.1-0.3-0.1-0.4l0,0l0,0c0-0.1,0-0.2,0-0.3
		c0-0.1,0-0.2-0.1-0.4c0-0.1-0.1-0.2-0.2-0.3c0-0.1-0.1-0.1-0.1-0.2C43,43.5,43,43.3,43,43.1l0-0.1c0-0.5-0.1-1-0.3-1.5
		c0-0.1-0.1-0.1-0.1-0.2c-0.1-0.2-0.2-0.3-0.2-0.5c0,0,0-0.1,0-0.2c0-0.1,0-0.2-0.1-0.3c-0.1-0.3-0.4-0.5-0.7-0.6
		c-0.1,0-0.1,0-0.2,0c0,0-0.1,0-0.1,0c-0.3,0-0.6-0.2-0.9-0.4c-0.3-0.2-0.5-0.5-0.7-0.7c-0.2-0.2-0.4-0.4-0.5-0.5
		c-0.2-0.2-0.5-0.4-0.7-0.7c-0.1-0.1-0.2-0.2-0.3-0.3C38,37,37.8,37,37.7,37c0,0-0.1,0-0.1,0c-0.4,0-0.7-0.2-0.9-0.5
		c0-0.1-0.1-0.1-0.1-0.2c-0.1-0.2-0.2-0.4-0.4-0.5c-0.3-0.2-0.8-0.1-1,0c-0.1,0-0.3,0.1-0.4,0.2c-0.1,0.1-0.3,0.1-0.4,0.2
		c-0.4,0.1-0.8,0.1-1.2,0.1c-0.5,0-0.9,0-1.3-0.2c-0.2-0.1-0.4-0.2-0.7-0.3l-2.2-1.2h0c-0.1,0-0.2,0-0.4,0c0-0.1,0.1-0.2,0.2-0.3
		c0.2-0.2,0.5-0.2,0.8-0.3c0.1,0,0.1-0.6,0.3-0.8c0.4-0.3,0.9-0.2,1-0.5c0.1-0.1,0.2-0.2,0.2-0.3l0,0c0.1,0.1,0.2,0.2,0.3,0.2
		c0.6,0.5,1.1,1.1,2,1.3c0.7,0.2,1.5,0.2,2.2,0.2h0.5c0.7,0,1.4,0,2.1-0.3c0.3-0.1,0.5-0.3,0.6-0.5c0.1-0.1,0.1-0.2,0.1-0.3l0-0.1
		c0-0.2,0.2-0.4,0.3-0.6c0.1-0.1,0.1-0.2,0.1-0.3c0-0.1,0-0.1-0.1-0.1c-0.3-0.5-0.9-0.8-1.5-0.9c-0.2,0-0.5,0-0.7,0.1
		c-0.4,0.1-0.8,0.1-1.2-0.1c-0.1-0.1-0.2-0.2-0.3-0.3c-0.1-0.1-0.2-0.2-0.4-0.3c-0.3-0.2-0.7-0.2-1-0.2c0.2-0.1,0.4-0.1,0.5-0.3
		c0.2-0.2,0-0.5,0-0.7c0-0.1,0.1-0.1,0.2-0.2c0.1-0.1,0.1-0.2,0.2-0.4c0.1-0.3,0.3-0.5,0.3-0.8c0.1-0.3-0.2-0.5-0.1-0.8
		c0.1-0.3,0.4-0.4,0.5-0.7c0.1-0.2,0.3-0.4,0.4-0.7c0.1-0.2,0.1-0.3,0.1-0.5l1.3,0.9c0.6,0.4,1.1,0.8,1.6,1.3
		c0.1,0.1,0.2,0.2,0.3,0.4c0.2,0.2,0.4,0.4,0.6,0.6c0.7,0.6,1.6,0.8,2.4,1.1c0.5,0.1,0.9,0.3,1.4,0.4c1,0.4,1.8,1.1,2.4,1.9
		c0,0.1,0.1,0.1,0.1,0.2c0.2,0.3,0.4,0.7,0.8,0.9c0.1,0,0.2,0.1,0.2,0.1c0.1,0,0.2,0.1,0.3,0.1c0.3,0.2,0.4,0.5,0.5,0.9
		c0.1,0.2,0.1,0.4,0.2,0.6c0.3,0.5,0.8,0.9,1.5,1c0.5,0.1,1,0.1,1.4,0.1h0.4c1,0,1.6-0.3,1.7-0.9c0-0.2,0-0.4-0.1-0.6
		c0-0.1,0-0.1-0.1-0.2c0-0.2,0-0.5,0.1-0.6c0,0,0,0,0.1,0c0,0,0.1-0.1,0.2-0.1c0,0,0,0,0,0c0.2,0,0.3,0,0.5,0c0.1,0,0.2,0,0.2,0
		c0.1,0,0.4,0,0.5-0.2c0-0.1,0-0.1,0.1-0.2c0,0,0,0,0-0.1c0,0,0-0.1,0.1-0.1c0,0,0.1-0.1,0.1-0.1c0-0.1,0-0.2,0.1-0.2l0-0.1
		c0-0.3,0.1-0.5,0.1-0.8l0-0.1c0-0.1,0-0.3,0-0.4c0.1-0.2,0.3-0.2,0.5-0.2c0.2,0,0.4,0.2,0.6,0.3c0,0,0,0,0,0
		c-0.1,0.1-0.1,0.1-0.1,0.2c0,0.2-0.1,0.5-0.2,0.7c-0.1,0.3-0.1,0.5-0.1,0.8c-0.2,0-0.3,0.1-0.4,0.2c-0.2,0.1-0.3,0.3-0.3,0.6
		c0,0.2,0,0.3,0.1,0.5c0.1,0.2,0.1,0.4,0.3,0.5c0.1,0.1,0.3,0.3,0.5,0.3c-0.1,0.3-0.1,0.5,0,0.8C56.3,35.6,56.3,35.7,56.3,35.7z"/>
</g>
</svg>
