<?xml version="1.0" encoding="utf-8"?>
<!-- Generator: Adobe Illustrator 23.0.5, SVG Export Plug-In . SVG Version: 6.00 Build 0)  -->
<svg version="1.1" id="Layer_1" xmlns="http://www.w3.org/2000/svg" xmlns:xlink="http://www.w3.org/1999/xlink" x="0px" y="0px"
	 viewBox="0 0 85 85" style="enable-background:new 0 0 85 85;" xml:space="preserve">
<style type="text/css">
	.st0{fill:#21A9E1;}
	.st1{fill:none;stroke:#587EFF;stroke-opacity:0.12;}
	.st2{fill:#FFFFFF;}
</style>
<g>
	<g>
		<path class="st0" d="M42.5,6L42.5,6c19.9,0,36,16.1,36,36v1c0,19.9-16.1,36-36,36l0,0c-19.9,0-36-16.1-36-36v-1
			C6.5,22.1,22.6,6,42.5,6z"/>
		<path class="st1" d="M42.5,6.5L42.5,6.5C62.1,6.5,78,22.4,78,42v1c0,19.6-15.9,35.5-35.5,35.5l0,0C22.9,78.5,7,62.6,7,43v-1
			C7,22.4,22.9,6.5,42.5,6.5z"/>
	</g>
	<path class="st2" d="M25.3,39.1l-2.8-1.9c0-0.1,0.1-0.2,0.1-0.2c0.4-0.5,0.2-0.9,0.8-1.5c0.4-0.5-0.4-1,0.5-1.6
		c0.5-0.3,1,0.4,1,0.8c0.1,0.6-0.4,1.3-0.5,1.9c0,0.5-0.1,1.2,0.3,1.5c0.4,0.3,1,0.2,1.4,0c0.2-0.1,0.4-0.4,0.7-0.4
		c0.3-0.1,0.6,0,0.9,0.1c0.6,0,1-0.5,1.6-0.5c0.8-0.1,1.2,0.2,2-0.3c0.6-0.4,0.7-0.8,0.7-1.5c0-0.6-0.1-1.3,0.1-1.8
		c0.1-0.2,0.3-0.3,0.4-0.5c0.1-0.3,0.2-0.5,0.3-0.8c0.3-0.5,0.7-0.5,1.1-0.9c0.2-0.2,0.2-0.4,0.4-0.5c0.3-0.2,0.5-0.2,0.8-0.4
		c0.4-0.2,0.5-0.6,0.8-0.9c0.2-0.2,0.4-0.2,0.5-0.4c0.1-0.2,0.2-0.4,0.4-0.6c0.2-0.1,0.4-0.1,0.6-0.2c0.2-0.1,0.3-0.3,0.5-0.5
		c0.4-0.3,1-0.2,1.4-0.6c0.4-0.4,0.7-0.8,1-1.2c0,0.1,0,0.1,0,0.2c0.2,0.7,1,1.2,1.5,1.6c0.9,0.6,1.8,1.2,3,1.5
		c0.3,0.1,0.5,0.1,0.8,0.1c0.7,0.1,1.4,0.2,1.8,0.6c0.3,0.4,0.3,1,0.2,1.6c0,0.5-0.1,1.1,0.1,1.6c0.2,0.5,0.5,0.8,0.9,1.2l0.2,0.2
		c1.4,1.5,2,3.6,1.7,5.6c0,0.2-0.1,0.4-0.1,0.6c-0.2,0.8-0.3,1.6,0,2.4c0.4,0.9,1.2,1.4,1.9,1.7l0.4,0.2c0.6,0.3,1.2,0.6,1.6,1
		c0.5,0.5,0.7,1.3,0.3,1.8c-0.1,0.1-0.1,0.1-0.2,0.2c-0.2,0.2-0.4,0.4-0.5,0.7c-0.1,0.4,0,0.7,0.2,1c0.6,1.2,1.5,2.2,2.5,3.1
		c0.1,0.1,0.2,0.1,0.3,0.2c0.4,0.3,0.6,0.6,0.6,0.8c0,0.1,0,0.1-0.1,0.2c0,0,0,0,0,0c0,0-0.1,0.1-0.1,0.1c-0.1,0-0.1,0.1-0.2,0.1
		c-0.5,0.3-0.6,1-0.4,1.8c0,0.1,0.1,0.3,0.1,0.4c0.1,0.4,0.2,0.7,0.2,1.1c-0.2,1.2-2.1,1.4-3,1.4c-1.2,0-2.4,0-3.6-0.3
		c-1.3-0.3-2.2-1-2.7-1.9c-0.2-0.4-0.3-0.8-0.5-1.2c-0.3-0.8-0.5-1.7-1.3-2.2c-0.2-0.1-0.4-0.2-0.6-0.3C45.1,53.1,45,53,44.8,53
		c-0.6-0.3-1-1-1.4-1.6c-0.1-0.1-0.2-0.2-0.2-0.4c-1.2-1.8-3-3.3-5-4.1c-0.9-0.4-1.9-0.7-2.8-1c-1.8-0.5-3.4-1-4.7-2.1
		c-0.4-0.4-0.9-0.8-1.3-1.3c-0.2-0.3-0.4-0.5-0.7-0.8C27.6,40.8,26.4,39.9,25.3,39.1z"/>
</g>
</svg>
